<svg xmlns="http://www.w3.org/2000/svg" xmlns:xlink="http://www.w3.org/1999/xlink" viewBox="0 0 314.33 73.65"><defs><style>.cls-1{font-size:64.08px;fill:#231f20;font-family:PalatinoLinotype-Roman, Palatino Linotype;}.cls-2{fill:url(#Gradiente_sem_nome_86);}</style><linearGradient id="Gradiente_sem_nome_86" x1="157.41" y1="13.3" x2="157.41" y2="48.52" gradientUnits="userSpaceOnUse"><stop offset="0" stop-color="#e17b6f"></stop><stop offset="0.26" stop-color="#ae505b"></stop><stop offset="0.49" stop-color="#802d5a"></stop><stop offset="0.73" stop-color="#df6d8e"></stop><stop offset="0.83" stop-color="#df7090"></stop><stop offset="0.89" stop-color="#df7898"></stop><stop offset="0.94" stop-color="#e087a5"></stop><stop offset="0.99" stop-color="#e19cb8"></stop><stop offset="1" stop-color="#e1a4bf"></stop></linearGradient></defs><g id="Camada_2" data-name="Camada 2"><g id="Camada_1-2" data-name="Camada 1"><text class="cls-1" transform="translate(0 54.97)">GUMMIES</text><path class="cls-2" d="M46.87,37.92v.94l-.12.38-1.54.9a1.85,1.85,0,0,0-.65.54,9.16,9.16,0,0,0-.24,1.86c-.09,1.11-.14,2.47-.14,4.08a55,55,0,0,0,.34,5.91l-.18.32a48.87,48.87,0,0,1-17.62,3.28A29.1,29.1,0,0,1,14.17,53.5a20.71,20.71,0,0,1-8.88-7.79A22.35,22.35,0,0,1,2,33.45Q2,22.62,9.4,16.24T28.72,9.86a39.83,39.83,0,0,1,15.74,3l.22.34A74.05,74.05,0,0,0,43.37,22l-.25.22H41.68l-.25-.25-.16-3.31a10.44,10.44,0,0,0-.2-1.91,2.32,2.32,0,0,0-.68-.74,15.72,15.72,0,0,0-2.89-1.44,24.21,24.21,0,0,0-4.68-1.44,26.69,26.69,0,0,0-5-.45A21,21,0,0,0,17.65,15,15.33,15.33,0,0,0,11,22,22.64,22.64,0,0,0,8.76,32.07a24.17,24.17,0,0,0,2.41,10.72,18.29,18.29,0,0,0,6.91,7.74,19.53,19.53,0,0,0,10.49,2.79,28.57,28.57,0,0,0,5.3-.52,15.55,15.55,0,0,0,4.46-1.46,18,18,0,0,0,.28-4V43.84a8.91,8.91,0,0,0-.31-3.09,2.14,2.14,0,0,0-1.55-.86,38.49,38.49,0,0,0-5.34-.31l-.28-.28V37.92l.28-.28,1.91.06q4.92.16,8,.16c1.19,0,2.93-.06,5.23-.19Z"></path><path class="cls-2" d="M49.84,11l.25-.22Q57.86,11,59,11t9-.25l.25.22v1.57l-.25.22q-2.16.06-3.33.18a4.2,4.2,0,0,0-1.71.47,2.22,2.22,0,0,0-.7,1.61,28.79,28.79,0,0,0-.17,3.52l-.06,7.2v10c0,3.28.06,5.68.2,7.21a12.86,12.86,0,0,0,.87,3.88,7.16,7.16,0,0,0,2.05,2.72,10.61,10.61,0,0,0,4,1.87,21.56,21.56,0,0,0,5.82.72,21,21,0,0,0,6.43-1,9.7,9.7,0,0,0,4.55-2.77,9.58,9.58,0,0,0,2-4.77,54.19,54.19,0,0,0,.48-8.21V25.75c0-1.63,0-3.86-.07-6.71A21.46,21.46,0,0,0,88,14.13a1.94,1.94,0,0,0-1.1-1,17.19,17.19,0,0,0-4.42-.39l-.25-.25V11l.25-.28c3.08.17,5.56.25,7.41.25q2.39,0,7.39-.25l.28.25v1.51l-.28.25a30.39,30.39,0,0,0-3.84.23,2.57,2.57,0,0,0-1.25.52,2.07,2.07,0,0,0-.53,1.06,30.18,30.18,0,0,0-.23,4.13l-.1,7v9.51a70,70,0,0,1-.44,9,11.79,11.79,0,0,1-2,5.4,14.41,14.41,0,0,1-3.6,3.54A16.26,16.26,0,0,1,80,55.37a29.34,29.34,0,0,1-6.75.76,28,28,0,0,1-7.75-1,14.64,14.64,0,0,1-5.3-2.56,10.13,10.13,0,0,1-2.78-3.37,12.55,12.55,0,0,1-1.1-4.16c-.17-1.59-.25-4-.25-7.3v-12L56,19.65a44.76,44.76,0,0,0-.18-4.6,2.91,2.91,0,0,0-.43-1.38,2.31,2.31,0,0,0-1.15-.56,26,26,0,0,0-4.16-.34l-.25-.22Z"></path><path class="cls-2" d="M157.6,10.86l.28.25v1.53l-.25.22a23.42,23.42,0,0,0-4.27.34,2,2,0,0,0-1.17.83,5.27,5.27,0,0,0-.39,2.27q0,1.69-.18,9.54V40.27c0,2.08,0,4.44.1,7.07a18.87,18.87,0,0,0,.39,4.58,1.82,1.82,0,0,0,1.08.94,19.41,19.41,0,0,0,4.44.39l.25.22V55l-.28.25q-5.1-.28-8.89-.29-2.57,0-8.72.29L139.7,55V53.5l.25-.25a22.63,22.63,0,0,0,4.28-.34,1.94,1.94,0,0,0,1.17-.83,5.61,5.61,0,0,0,.41-2.3q.06-1.72.15-9.51v-23L135.17,39.89q-4.06,8.49-7.11,16h-1.22q-1.74-4-2.87-6.44L109,18.34V40.21q0,3.06.08,7a18,18,0,0,0,.39,4.62,2,2,0,0,0,1.09.94,18.88,18.88,0,0,0,4.45.37l.25.25v1.5l-.28.28-2-.09c-2.06-.1-3.83-.16-5.32-.16-.66,0-3.16.09-7.47.25L99.94,55v-1.5l.25-.28a21.41,21.41,0,0,0,4.25-.31,2,2,0,0,0,1.18-.85,5.1,5.1,0,0,0,.4-2.22q0-1.62.14-9.6V25.88c0-1.9,0-4.21-.08-6.93a19.93,19.93,0,0,0-.37-4.73,1.9,1.9,0,0,0-1.08-1,17.92,17.92,0,0,0-4.44-.38l-.25-.25v-1.5l.28-.28q2.16.15,5.82.15,3.43,0,6-.15c1.76,4,3.44,7.71,5,11l11.86,24.34,10.7-22.31q4.35-9,5.85-13,3,.15,5.92.15Q154,11,157.6,10.86Z"></path><path class="cls-2" d="M218.21,10.86l.28.25v1.53l-.25.22a23.32,23.32,0,0,0-4.27.34,2,2,0,0,0-1.18.83,5.43,5.43,0,0,0-.39,2.27q0,1.69-.17,9.54V40.27q0,3.12.1,7.07a18.87,18.87,0,0,0,.39,4.58,1.76,1.76,0,0,0,1.08.94,19.41,19.41,0,0,0,4.44.39l.25.22V55l-.28.25q-5.1-.28-8.89-.29-2.56,0-8.73.29l-.28-.25V53.5l.25-.25a22.39,22.39,0,0,0,4.27-.34,1.91,1.91,0,0,0,1.17-.83,5.45,5.45,0,0,0,.41-2.3c0-1.15.1-4.32.16-9.51v-23l-10.8,22.59q-4.07,8.49-7.1,16h-1.22q-1.75-4-2.88-6.44L169.62,18.34V40.21q0,3.06.07,7a18.31,18.31,0,0,0,.4,4.62,2,2,0,0,0,1.09.94,18.7,18.7,0,0,0,4.44.37l.25.25v1.5l-.28.28-2-.09c-2.07-.1-3.84-.16-5.32-.16-.67,0-3.16.09-7.48.25l-.25-.25v-1.5l.25-.28a21.46,21.46,0,0,0,4.26-.31,2,2,0,0,0,1.17-.85,4.92,4.92,0,0,0,.41-2.22q0-1.62.14-9.6V25.88q0-2.85-.08-6.93a20.54,20.54,0,0,0-.37-4.73,1.9,1.9,0,0,0-1.08-1,18.09,18.09,0,0,0-4.45-.38l-.25-.25v-1.5l.28-.28q2.16.15,5.82.15,3.45,0,6-.15c1.75,4,3.43,7.71,5,11l11.86,24.34,10.7-22.31q4.35-9,5.85-13,3,.15,5.91.15Q214.64,11,218.21,10.86Z"></path><path class="cls-2" d="M221.81,10.76l3.91.13c2.56.08,4.24.12,5,.12s3.71-.08,9-.25L240,11v1.57l-.25.22q-2.16.06-3.33.18a4.1,4.1,0,0,0-1.7.47A2.22,2.22,0,0,0,234,15a28.79,28.79,0,0,0-.17,3.52l-.06,7.2V40.24l0,6.1a40.55,40.55,0,0,0,.19,4.57,2.82,2.82,0,0,0,.45,1.37,2.31,2.31,0,0,0,1.14.58,24.09,24.09,0,0,0,4.16.36l.25.19V55l-.25.25-5.5-.18c-1.48,0-2.64-.07-3.48-.07-.64,0-3.63.09-8.94.25l-.25-.25V53.41l.25-.19a31.11,31.11,0,0,0,3.88-.31,2.83,2.83,0,0,0,1.29-.49,2.44,2.44,0,0,0,.54-1.26,29.83,29.83,0,0,0,.23-4.32l0-6.6V25.75l-.06-6.1c0-2.38-.08-3.91-.17-4.6a2.89,2.89,0,0,0-.44-1.38,2.31,2.31,0,0,0-1.14-.56,26.15,26.15,0,0,0-4.16-.34l-.25-.22V11Z"></path><path class="cls-2" d="M243.83,11l.25-.22q10.74.2,13.74.19,10.26,0,18.27-.19l.16.22a53.47,53.47,0,0,0-1.16,9.42l-.19.25h-1.53l-.28-.25a4.75,4.75,0,0,0,0-.5,30.62,30.62,0,0,0-.41-5.07,17.14,17.14,0,0,0-5.46-1.14c-2.32-.18-4.07-.27-5.24-.27-1.65,0-3.75.12-6.32.35l-.12,5-.1,5.73-.09,6.35c2.25.13,4.33.19,6.22.19s3.53-.06,4.82-.19a7.74,7.74,0,0,0,2.27-.39,1.31,1.31,0,0,0,.5-.78,11,11,0,0,0,.3-2.05l.13-1.94.25-.25h1.43l.25.25c0,2.27-.09,4.56-.15,6.85l.15,7-.25.25h-1.43l-.25-.25-.22-1.88c-.19-1.46-.33-2.33-.41-2.61a1.34,1.34,0,0,0-.58-.73,6.25,6.25,0,0,0-2.33-.51q-1.87-.18-5.16-.18c-1.21,0-3.06,0-5.54.15q-.16,2.64-.16,8.76c0,4.38.05,7.61.16,9.67h5.76c5.06,0,8.24-.06,9.51-.19a12.39,12.39,0,0,0,3.63-.9c.18-.48.49-1.59.92-3.33s.67-2.84.74-3.27l.31-.22h1.5l.25.22a42.81,42.81,0,0,0-.55,4.69c-.17,2.23-.26,4.14-.26,5.72l-.22.25Q271,55,261.32,55L252.81,55c-2,0-4,.09-6.19.25l-.25-.25v-1l.25-.31a19,19,0,0,0,2.11-1.17c.18-.16.32-2,.44-5.48s.17-6.16.17-8V27.5l0-7.1c0-1.54,0-2.8-.06-3.77a13.07,13.07,0,0,0-.22-2.08,2.6,2.6,0,0,0-.36-.88,1.71,1.71,0,0,0-.66-.42,7.89,7.89,0,0,0-1.55-.3l-2.38-.18-.25-.22Z"></path><path class="cls-2" d="M283.16,44.21l.25-.25H285l.25.25a28.4,28.4,0,0,0,.42,4.9A4,4,0,0,0,287.31,51a12.37,12.37,0,0,0,3.78,1.61,18.94,18.94,0,0,0,4.78.62,14,14,0,0,0,6-1.22,9.26,9.26,0,0,0,4.11-3.58,9.84,9.84,0,0,0,1.47-5.3,8.53,8.53,0,0,0-.7-3.6,6.24,6.24,0,0,0-2-2.46,9,9,0,0,0-2.9-1.37,45.56,45.56,0,0,0-4.85-1c-2.08-.33-3.72-.64-4.89-.91a16.66,16.66,0,0,1-3.52-1.25,9.37,9.37,0,0,1-2.93-2.14,9.9,9.9,0,0,1-1.88-3.19,11.59,11.59,0,0,1-.7-4.06,12.43,12.43,0,0,1,4.07-9.59q4.07-3.74,10.92-3.73a29,29,0,0,1,5.93.67,24.39,24.39,0,0,1,5.83,2l.22.38a42.41,42.41,0,0,0-.84,8.2l-.29.25h-1.62l-.25-.22c-.05-2.5-.11-4.08-.19-4.73s-1-1.44-2.85-2.4a12.42,12.42,0,0,0-5.91-1.44,11.78,11.78,0,0,0-5,1.06,7.3,7.3,0,0,0-3.5,3.35,10,10,0,0,0-1.19,4.66,7.15,7.15,0,0,0,.72,3.27A6.12,6.12,0,0,0,291,27.11a7.86,7.86,0,0,0,2.66,1.24q1.51.41,5.55,1a32.94,32.94,0,0,1,8.06,1.89,9,9,0,0,1,4,3.52,10.73,10.73,0,0,1,1.52,5.82,13.82,13.82,0,0,1-5.43,11.11,20.13,20.13,0,0,1-13.16,4.44,26.3,26.3,0,0,1-11.36-2.31l-.19-.41A90,90,0,0,0,283.16,44.21Z"></path></g></g></svg>