<svg xmlns="http://www.w3.org/2000/svg" viewBox="0 0 179.27 129.65"><defs><style>.cls-1{fill:#DBD075;fill-rule:evenodd;}</style></defs><g id="Camada_2" data-name="Camada 2"><g id="Camada_1-2" data-name="Camada 1"><path class="cls-1" d="M44,23.21a45.5,45.5,0,0,0,34.74,40,45.34,45.34,0,0,0-4.22-35.72h0A45.28,45.28,0,0,0,45.72,6,45.73,45.73,0,0,0,44,23.21m1.41,21.13A50.66,50.66,0,0,1,41.52,2.11L42.26,0l2.19.41A50.68,50.68,0,0,1,79.06,24.92h0A50.64,50.64,0,0,1,83,67.14l-.74,2.12-2.19-.42a50.92,50.92,0,0,1-20-8.47A50.61,50.61,0,0,1,45.44,44.34Z"></path><path class="cls-1" d="M19.86,87.67A52.46,52.46,0,0,1,80.12,68.51l2.12.75-.41,2.19a52.75,52.75,0,0,1-8.77,20.71A52.47,52.47,0,0,1,12.8,111.31l-2.12-.74.41-2.2a52.71,52.71,0,0,1,8.77-20.7M39.05,77.08a47.12,47.12,0,0,0-22.36,30A47.2,47.2,0,0,0,76.23,72.72a47.57,47.57,0,0,0-17.94-1.79A47.09,47.09,0,0,0,39.05,77.08Z"></path><path class="cls-1" d="M44.32,108.84A44,44,0,0,1,80.05,69.67l2.19-.41L83,71.37a43.84,43.84,0,0,1-3.4,36.6v0a43.95,43.95,0,0,1-30,21.24l-2.19.42-.75-2.12a44.13,44.13,0,0,1-2.31-18.69M54.54,93.53a38.65,38.65,0,0,0-3.69,30.1,38.61,38.61,0,0,0,24.23-18.26h0a38.67,38.67,0,0,0,5-15.78,39.07,39.07,0,0,0-1.35-14.33,39.14,39.14,0,0,0-13.08,6A38.68,38.68,0,0,0,54.54,93.53Z"></path><path class="cls-1" d="M14.78,44.88A55.54,55.54,0,0,0,54.83,68,55.81,55.81,0,0,0,76.24,65.8a55.57,55.57,0,0,0-8.78-19.65A55.59,55.59,0,0,0,27.41,23,55.86,55.86,0,0,0,6,25.23a55.77,55.77,0,0,0,8.79,19.65M29.69,65.31A60.33,60.33,0,0,1,10.54,47.88,60.65,60.65,0,0,1,.41,24L0,21.77,2.11,21A60.7,60.7,0,0,1,71.7,43.15,60.8,60.8,0,0,1,81.83,67.06l.41,2.2L80.12,70a60.83,60.83,0,0,1-25.75,3.19A60.43,60.43,0,0,1,29.69,65.31Z"></path><path class="cls-1" d="M135.24,23.21a45.49,45.49,0,0,1-34.75,40,45.45,45.45,0,0,1,4.22-35.72h0A45.34,45.34,0,0,1,133.54,6a45.74,45.74,0,0,1,1.7,17.2m-1.41,21.13a50.66,50.66,0,0,0,3.92-42.23L137,0l-2.2.41a50.69,50.69,0,0,0-34.6,24.51h0a50.69,50.69,0,0,0-3.93,42.22L97,69.26l2.19-.42a51,51,0,0,0,20-8.47A50.61,50.61,0,0,0,133.83,44.34Z"></path><path class="cls-1" d="M159.4,87.67a52.59,52.59,0,0,0-37.95-21.92,52.82,52.82,0,0,0-22.31,2.76L97,69.26l.41,2.19a52.47,52.47,0,0,0,69,39.86l2.11-.74-.41-2.2a52.56,52.56,0,0,0-8.77-20.7M140.21,77.08a47.09,47.09,0,0,1,22.37,30A47.23,47.23,0,0,1,103,72.72a47.64,47.64,0,0,1,18-1.79A47,47,0,0,1,140.21,77.08Z"></path><path class="cls-1" d="M135,108.84A44,44,0,0,0,99.22,69.67L97,69.26l-.75,2.11a43.93,43.93,0,0,0,3.4,36.6v0a44,44,0,0,0,30,21.24l2.19.42.74-2.12A44,44,0,0,0,135,108.84M124.73,93.53a38.63,38.63,0,0,1,5,15.78,39.23,39.23,0,0,1-1.35,14.32,38.61,38.61,0,0,1-24.23-18.26h0a38.67,38.67,0,0,1-3.69-30.11,39.23,39.23,0,0,1,13.08,6A38.8,38.8,0,0,1,124.73,93.53Z"></path><path class="cls-1" d="M164.49,44.88A55.59,55.59,0,0,1,124.43,68,55.81,55.81,0,0,1,103,65.8a55.36,55.36,0,0,1,70.25-40.57,55.57,55.57,0,0,1-8.78,19.65M149.57,65.31a60.36,60.36,0,0,0,19.16-17.43A60.78,60.78,0,0,0,178.85,24l.42-2.2L177.15,21a60.61,60.61,0,0,0-79.71,46L97,69.26l2.11.74a60.9,60.9,0,0,0,25.76,3.19A60.44,60.44,0,0,0,149.57,65.31Z"></path></g></g></svg>