<svg xmlns="http://www.w3.org/2000/svg" xmlns:xlink="http://www.w3.org/1999/xlink" viewBox="0 0 526.92 104.58"><defs><style>.cls-1{fill:none;clip-rule:evenodd;}.cls-2{font-size:85.65px;font-family:PalatinoLinotype-Roman, Palatino Linotype;}.cls-3{fill:url(#linear-gradient);}.cls-4{clip-path:url(#clip-path);}.cls-5{fill:url(#linear-gradient-10);}.cls-6{clip-path:url(#clip-path-2);}.cls-7{fill:url(#linear-gradient-11);}.cls-8{clip-path:url(#clip-path-3);}.cls-9{fill:url(#linear-gradient-12);}.cls-10{clip-path:url(#clip-path-4);}.cls-11{fill:url(#linear-gradient-13);}.cls-12{clip-path:url(#clip-path-5);}.cls-13{fill:url(#linear-gradient-14);}.cls-14{clip-path:url(#clip-path-6);}.cls-15{fill:url(#linear-gradient-15);}.cls-16{clip-path:url(#clip-path-7);}.cls-17{fill:url(#linear-gradient-16);}.cls-18{clip-path:url(#clip-path-8);}.cls-19{fill:url(#linear-gradient-17);}.cls-20{font-size:12.36px;fill:#fff;font-family:Nexa-Thin, Nexa;font-weight:200;letter-spacing:0.42em;}.cls-21{letter-spacing:0.41em;}.cls-22{letter-spacing:0.44em;}.cls-23{letter-spacing:0.41em;}.cls-24{letter-spacing:0.44em;}.cls-25{letter-spacing:0.41em;}.cls-26{letter-spacing:0.39em;}.cls-27{letter-spacing:0.41em;}</style><linearGradient id="linear-gradient" x1="159.91" y1="55.93" x2="525.21" y2="55.93" gradientUnits="userSpaceOnUse"><stop offset="0" stop-color="#e5dc80"></stop><stop offset="0.13" stop-color="#e7d87a"></stop><stop offset="0.24" stop-color="#e3c764"></stop><stop offset="0.33" stop-color="#b28f44"></stop><stop offset="0.49" stop-color="#846c22"></stop><stop offset="0.62" stop-color="#b5954d"></stop><stop offset="0.69" stop-color="#e7d478"></stop><stop offset="0.73" stop-color="#e6dc80"></stop><stop offset="0.77" stop-color="#e5de97"></stop><stop offset="0.8" stop-color="#e6dc80"></stop><stop offset="0.83" stop-color="#e7d478"></stop><stop offset="0.92" stop-color="#bc914a"></stop><stop offset="1" stop-color="#8f641b"></stop></linearGradient><clipPath id="clip-path"><path class="cls-1" d="M34.65,20.81a36,36,0,0,0,15,25.91A36.05,36.05,0,0,0,62,52.32a35.66,35.66,0,0,0-3.32-28.11h0A35.73,35.73,0,0,0,36,7.27a36.13,36.13,0,0,0-1.34,13.54m1.11,16.63A39.89,39.89,0,0,1,32.68,4.21l.58-1.67L35,2.87A39.84,39.84,0,0,1,62.22,22.16h0a39.92,39.92,0,0,1,3.08,33.24l-.58,1.66L63,56.73a40.23,40.23,0,0,1-15.75-6.67A39.89,39.89,0,0,1,35.76,37.44Z"></path></clipPath><linearGradient id="linear-gradient-10" x1="28.11" y1="5.01" x2="68.36" y2="52.79" xlink:href="#linear-gradient"></linearGradient><clipPath id="clip-path-2"><path class="cls-1" d="M15.63,71.54A41.32,41.32,0,0,1,63.06,56.47l1.67.58-.33,1.73a41.49,41.49,0,0,1-6.9,16.3A41.27,41.27,0,0,1,10.07,90.15l-1.66-.58.32-1.73a41.49,41.49,0,0,1,6.9-16.3m15.11-8.33A37,37,0,0,0,13.13,86.84,37.17,37.17,0,0,0,60,59.78a37.34,37.34,0,0,0-14.12-1.41A36.94,36.94,0,0,0,30.74,63.21Z"></path></clipPath><linearGradient id="linear-gradient-11" x1="5.01" y1="55.89" x2="65.99" y2="89.55" xlink:href="#linear-gradient"></linearGradient><clipPath id="clip-path-3"><path class="cls-1" d="M34.88,88.21A34.61,34.61,0,0,1,63,57.38l1.73-.33.58,1.67a34.6,34.6,0,0,1-2.67,28.81h0A34.64,34.64,0,0,1,39,104.26l-1.73.32-.59-1.66a34.89,34.89,0,0,1-1.82-14.71m8-12a30.26,30.26,0,0,0-4,12.41A30.83,30.83,0,0,0,40,99.85,30.41,30.41,0,0,0,59.09,85.48h0A30.35,30.35,0,0,0,62,61.79,30.33,30.33,0,0,0,42.93,76.16Z"></path></clipPath><linearGradient id="linear-gradient-12" x1="32.73" y1="59.19" x2="67.97" y2="100.88" xlink:href="#linear-gradient"></linearGradient><clipPath id="clip-path-4"><path class="cls-1" d="M11.63,37.87a43.79,43.79,0,0,0,31.53,18.2A43.75,43.75,0,0,0,60,54.33a43.7,43.7,0,0,0-6.92-15.46A43.71,43.71,0,0,0,21.57,20.66,43.92,43.92,0,0,0,4.72,22.4a43.73,43.73,0,0,0,6.91,15.47M23.37,54a47.62,47.62,0,0,1-23-32.54L0,19.68l1.66-.58A47.7,47.7,0,0,1,64.4,55.33l.33,1.72-1.67.59A47.58,47.58,0,0,1,23.37,54Z"></path></clipPath><linearGradient id="linear-gradient-13" x1="-3.91" y1="18.42" x2="66.18" y2="56.97" xlink:href="#linear-gradient"></linearGradient><clipPath id="clip-path-5"><path class="cls-1" d="M106.44,20.81a36,36,0,0,1-15,25.91,36.05,36.05,0,0,1-12.39,5.6,35.66,35.66,0,0,1,3.32-28.11h0A35.73,35.73,0,0,1,105.11,7.27a35.92,35.92,0,0,1,1.33,13.54m-1.11,16.63a39.85,39.85,0,0,0,3.09-33.23l-.58-1.67-1.73.33A39.89,39.89,0,0,0,78.87,22.16h0a39.87,39.87,0,0,0-3.09,33.24l.59,1.66,1.72-.32a40.21,40.21,0,0,0,15.76-6.67A39.86,39.86,0,0,0,105.33,37.44Z"></path></clipPath><linearGradient id="linear-gradient-14" x1="112.98" y1="5.01" x2="72.73" y2="52.8" xlink:href="#linear-gradient"></linearGradient><clipPath id="clip-path-6"><path class="cls-1" d="M125.46,71.54A41.31,41.31,0,0,0,78,56.47l-1.66.58.32,1.73A41.28,41.28,0,0,0,131,90.15l1.67-.58-.33-1.73a41.49,41.49,0,0,0-6.9-16.3m-15.1-8.33A37,37,0,0,1,128,86.84a37.32,37.32,0,0,1-14.12,1.41A37.43,37.43,0,0,1,86.93,72.72a37.45,37.45,0,0,1-5.84-12.94,37.06,37.06,0,0,1,29.27,3.43Z"></path></clipPath><linearGradient id="linear-gradient-15" x1="136.08" y1="55.89" x2="75.1" y2="89.55" xlink:href="#linear-gradient"></linearGradient><clipPath id="clip-path-7"><path class="cls-1" d="M106.21,88.21A34.61,34.61,0,0,0,78.09,57.38l-1.72-.33-.59,1.67a34.55,34.55,0,0,0,2.68,28.81h0a34.64,34.64,0,0,0,23.62,16.72l1.73.32.58-1.66a34.57,34.57,0,0,0,1.82-14.71m-8-12a30.34,30.34,0,0,1,2.9,23.69,30.74,30.74,0,0,1-10.29-4.72A30.33,30.33,0,0,1,82,85.48h0a30.39,30.39,0,0,1-4-12.42A30.78,30.78,0,0,1,79.1,61.79,30.38,30.38,0,0,1,98.17,76.16Z"></path></clipPath><linearGradient id="linear-gradient-16" x1="108.36" y1="59.2" x2="73.13" y2="100.88" xlink:href="#linear-gradient"></linearGradient><clipPath id="clip-path-8"><path class="cls-1" d="M129.46,37.87A43.52,43.52,0,0,1,115.69,50.4a43.42,43.42,0,0,1-17.75,5.67,43.71,43.71,0,0,1-16.85-1.74A43.57,43.57,0,0,1,136.38,22.4a43.75,43.75,0,0,1-6.92,15.47M117.72,54a47.62,47.62,0,0,0,23.05-32.54l.33-1.73-1.67-.58A47.7,47.7,0,0,0,76.69,55.33l-.32,1.72,1.66.59a47.84,47.84,0,0,0,20.28,2.51A47.61,47.61,0,0,0,117.72,54Z"></path></clipPath><linearGradient id="linear-gradient-17" x1="144.99" y1="18.42" x2="74.92" y2="56.97" xlink:href="#linear-gradient"></linearGradient></defs><g id="Camada_2" data-name="Camada 2"><g id="Camada_1-2" data-name="Camada 1"><text class="cls-2" transform="translate(158.36 73.48)">LitBeauty</text><path class="cls-3" d="M159.91,14.68l.33-.29q10.38.33,12,.33,1.41,0,12-.33l.33.29v2.09l-.33.29c-1.93.06-3.41.14-4.46.25a5.39,5.39,0,0,0-2.28.63,3,3,0,0,0-.94,2.15,37.76,37.76,0,0,0-.23,4.71l-.08,9.62V52.9q0,6.95.08,9.7l.21,7.24H185q10.22,0,12.74-.25a17.4,17.4,0,0,0,4.87-1.21A33.67,33.67,0,0,0,204,63.57q.85-3.76.9-4.35l.37-.34h2l.3.34a60,60,0,0,0-.69,6.48q-.36,4.81-.36,7.78l-.34.33q-7.94-.25-20.86-.25l-12.21-.08q-4.19,0-8.54.33l-.33-.33V72.1l.33-.42a18.32,18.32,0,0,0,2.85-1.63c.17-.2.34-2,.52-5.4s.27-7.5.27-12.29V34.42l-.08-8.16c0-3.18-.11-5.22-.23-6.14a3.75,3.75,0,0,0-.59-1.84,3,3,0,0,0-1.52-.76,36.55,36.55,0,0,0-5.57-.46l-.33-.29Z"></path><path class="cls-3" d="M226.28,33.62l.79.55q-.45,5.47-.46,13.92v9.45q0,.93.17,5.92a52.46,52.46,0,0,0,.36,5.84,2.44,2.44,0,0,0,.56,1.21,1.74,1.74,0,0,0,.92.48c.36.07,1.87.19,4.52.35l.37.34v1.76l-.33.37q-5.24-.33-10.08-.33c-3.21,0-6.55.11-10,.33l-.37-.37V71.68l.37-.34c2.71-.16,4.23-.29,4.58-.37a2,2,0,0,0,.92-.52,2.24,2.24,0,0,0,.55-1.22c.09-.54.21-2.34.33-5.39s.19-5.36.19-6.92V48.68c0-1.12-.06-2.64-.17-4.56s-.2-3.11-.27-3.55a1.29,1.29,0,0,0-.65-1,5,5,0,0,0-2.17-.31l-3.51,0-.38-.34v-1.8l.33-.33A54.37,54.37,0,0,0,226.28,33.62Zm-3.56-18.69a4.71,4.71,0,0,1,4.73,4.73,4.5,4.5,0,0,1-1.38,3.3,4.74,4.74,0,0,1-6.67,0,4.46,4.46,0,0,1-1.4-3.32,4.75,4.75,0,0,1,4.72-4.73Z"></path><path class="cls-3" d="M237.53,40.65V39.56l.29-.42a57.68,57.68,0,0,0,6.36-2.72q0-10.91-.25-12.71A36,36,0,0,0,251,20.49l1,.84c-.28,1.75-.62,6.86-1,15.3,1.4,0,2.9,0,4.52,0a67.25,67.25,0,0,0,7.07-.26l.29.3-.79,3.51-.34.38c-1.42,0-3,0-4.72,0-1.57,0-3.57,0-6,0l-.25,17a64,64,0,0,0,.28,7.71,4.4,4.4,0,0,0,1.5,2.85,5.63,5.63,0,0,0,3.66,1,9.79,9.79,0,0,0,5.19-1.46l1,1.5c-.67.48-2.27,1.87-4.81,4.19a10.62,10.62,0,0,1-4.43,1q-9.42,0-9.41-9.12c0-2.23.05-4.12.16-5.69,0-.47.05-1,.05-1.46V40.82h-1.72c-1.25,0-2.69,0-4.31.16Z"></path><path class="cls-3" d="M265.05,17.06l-.34-.29V14.68l.34-.29q7.14.33,11,.33,1.46,0,11.58-.33c2.18-.06,3.75-.09,4.73-.09a28.68,28.68,0,0,1,9,1.13,10.51,10.51,0,0,1,5.31,4,11.05,11.05,0,0,1,2,6.51,13.11,13.11,0,0,1-3.34,8.61q-3.35,4-10.87,5.69a45.05,45.05,0,0,1,7.44,1.21A14.29,14.29,0,0,1,307,43.89a11.54,11.54,0,0,1,3.37,4.29,14.26,14.26,0,0,1,1.23,6.1,19.18,19.18,0,0,1-.84,5.52,16.17,16.17,0,0,1-3.07,5.56,21.35,21.35,0,0,1-5.42,4.73,23.65,23.65,0,0,1-6.5,2.84,32.72,32.72,0,0,1-8.26.88c-.67,0-2.67-.07-6-.21l-6-.12q-2.85,0-7,.33l-.33-.33V72.1l.33-.42a11.62,11.62,0,0,0,2.81-1.51q.38-.4.6-7.4c.15-4.65.23-8.21.23-10.66V36.76l0-9.49c0-2.07,0-3.75-.08-5a27.16,27.16,0,0,0-.23-2.78,2.21,2.21,0,0,0-.48-1.17,2.55,2.55,0,0,0-.95-.57,9.56,9.56,0,0,0-2.07-.4Zm15,22c1.39.11,3,.17,4.73.17q8.65,0,12-3.1a10.91,10.91,0,0,0,3.39-8.49,10.34,10.34,0,0,0-1.3-5.33,8.19,8.19,0,0,0-4.08-3.37,19.88,19.88,0,0,0-7.55-1.17,33.23,33.23,0,0,0-6.85.63q-.37,3.77-.38,13.13Zm.08,30.48a28.52,28.52,0,0,0,6.61.76q6,0,9.37-1.93a11.86,11.86,0,0,0,5-5.33,17.21,17.21,0,0,0,1.61-7.42q0-6-3.41-9.64t-14.74-3.62c-1.26,0-2.76.06-4.52.17V56.75Z"></path><path class="cls-3" d="M352.83,67.33l-1.34,3A26.58,26.58,0,0,1,343.73,74a25.72,25.72,0,0,1-6.08.84,23.52,23.52,0,0,1-9.52-2,16,16,0,0,1-7.32-6.65A21.5,21.5,0,0,1,318,54.91,26.77,26.77,0,0,1,319.08,47a19.29,19.29,0,0,1,2.28-5.24,17.66,17.66,0,0,1,4-3.81,27,27,0,0,1,6-3.35,18.67,18.67,0,0,1,6.86-1.25,16.54,16.54,0,0,1,8.85,2.36,13,13,0,0,1,5.37,6.05A20,20,0,0,1,354,49.56a22.79,22.79,0,0,1-.13,2.51l-.46.46a47.37,47.37,0,0,1-7.65.83q-4.82.21-6.36.21H326q.09,8.66,4.35,12.76a14.51,14.51,0,0,0,10.45,4.09,16,16,0,0,0,5.63-1,35.15,35.15,0,0,0,5.71-2.8ZM326,50.23q.75.12,5.79.29t7.47.17a64.76,64.76,0,0,0,7.06-.21c0-.67.05-1.19.05-1.55q0-6.48-2.64-9.64a8.86,8.86,0,0,0-7.19-3.16,9.29,9.29,0,0,0-7.76,3.56Q326,43.25,326,50.23Z"></path><path class="cls-3" d="M365.75,45.12l-1.63-.41-.34-.42V39.1q7.44-5.52,14.47-5.52a16,16,0,0,1,8,1.8,11.28,11.28,0,0,1,4.6,4.5,13.24,13.24,0,0,1,1.42,6.29l-.21,8.41V67a7.48,7.48,0,0,0,.36,3.09,1.84,1.84,0,0,0,.81.73,7.15,7.15,0,0,0,1.72.32l2.38.21.34.37v1.68l-.34.33c-2-.17-3.93-.25-5.68-.25s-3.69.08-6,.25l-.62-.59.16-6.73L376,73.56a12.94,12.94,0,0,1-5,1,12.61,12.61,0,0,1-5.75-1.21,8.65,8.65,0,0,1-3.68-3.39,10.24,10.24,0,0,1-1.28-5.27q0-6.15,3.85-9.59t21-5.88c0-4.13-.92-7-2.76-8.72a10.5,10.5,0,0,0-7.4-2.53,13.08,13.08,0,0,0-4.41.71,5.74,5.74,0,0,0-2.28,1.15q-.3.43-2.26,5.12Zm19.4,6.61q-11.7,2-14.59,4.23t-2.89,7q0,6.53,6.48,6.52,5.57,0,11-6.44Z"></path><path class="cls-3" d="M414.18,33.62l.79.55q-.47,5.47-.46,13.92v9.75q0,5.35.82,7.44a6.08,6.08,0,0,0,2.82,3.2,9.72,9.72,0,0,0,4.77,1.11,12.86,12.86,0,0,0,5.56-1.19,11.6,11.6,0,0,0,4.2-3.37,14,14,0,0,0,1.95-2.93,21.46,21.46,0,0,0,.33-4.22l.13-4.69V48.68c0-1.12-.06-2.64-.17-4.56s-.2-3.11-.27-3.55a1.32,1.32,0,0,0-.65-1,5,5,0,0,0-2.17-.31l-3.52,0-.37-.34v-1.8l.33-.33a54.59,54.59,0,0,0,13.47-3.14l.79.55q-.46,5.47-.46,13.92v7.36q0,.63.21,10.25a15.22,15.22,0,0,0,.44,4.33,2.09,2.09,0,0,0,1,1.08,12,12,0,0,0,3.72.32h1.17l.38.33v1.68l-.33.37c-3.94-.22-6.57-.33-7.91-.33q-2.55,0-5.89.29l-.38-.33c.17-2.85.29-5.26.38-7.24a63.76,63.76,0,0,0-6,5.48,9.93,9.93,0,0,1-3.72,2.17,16.07,16.07,0,0,1-5.52.88,14.93,14.93,0,0,1-7.3-1.48,8.35,8.35,0,0,1-3.7-4.1c-.72-1.74-1.08-4.75-1.08-9l0-3.31V48.68c0-1.12-.06-2.64-.17-4.56s-.2-3.11-.27-3.55a1.32,1.32,0,0,0-.65-1,5,5,0,0,0-2.17-.31l-3.52,0-.37-.34v-1.8l.33-.33A54.48,54.48,0,0,0,414.18,33.62Z"></path><path class="cls-3" d="M453.28,40.65V39.56l.29-.42a57.68,57.68,0,0,0,6.36-2.72q0-10.91-.25-12.71a36,36,0,0,0,7.06-3.22l1,.84c-.28,1.75-.62,6.86-1,15.3,1.4,0,2.9,0,4.52,0a67.25,67.25,0,0,0,7.07-.26l.29.3-.79,3.51-.34.38c-1.42,0-3,0-4.72,0-1.57,0-3.57,0-6,0l-.25,17a64,64,0,0,0,.28,7.71,4.4,4.4,0,0,0,1.5,2.85,5.63,5.63,0,0,0,3.66,1,9.79,9.79,0,0,0,5.19-1.46l1,1.5c-.67.48-2.27,1.87-4.81,4.19a10.62,10.62,0,0,1-4.43,1q-9.42,0-9.41-9.12c0-2.23,0-4.12.16-5.69,0-.47.05-1,.05-1.46V40.82H458c-1.25,0-2.69,0-4.31.16Z"></path><path class="cls-3" d="M481.17,96.19a47.89,47.89,0,0,0,2.14-6.44h1A6,6,0,0,0,488.74,92,6.36,6.36,0,0,0,493.91,89q2.19-2.94,6.21-13c-1.06-3-2.14-5.8-3.22-8.45l-6.65-16.48q-1-2.55-3.1-7.3a45.35,45.35,0,0,0-2.44-5.22,4.85,4.85,0,0,0-1-.9,10.46,10.46,0,0,0-3.39-.8l-.33-.33V34.84l.38-.34c3.2.2,6.49.29,9.87.29,4,0,7-.09,9.15-.29l.34.34v1.67l-.29.33-2.58.19a4.66,4.66,0,0,0-2.63.67,1.64,1.64,0,0,0-.52,1.19A26,26,0,0,0,495,43.51c.87,2.61,1.7,4.92,2.51,6.92L500.12,57q2.6,6.43,4,9.49l2.22-4.89c.78-1.78,1.89-4.49,3.34-8.11l3.47-8.87a41.08,41.08,0,0,0,1.53-4.27,5.89,5.89,0,0,0,.19-1.21,1.26,1.26,0,0,0-.67-1.25,10.64,10.64,0,0,0-3-.59L509.49,37l-.3-.33V34.84l.34-.34c2.34.2,5.11.29,8.32.29a65.22,65.22,0,0,0,7-.29l.34.34v1.84l-.34.33a7.18,7.18,0,0,0-2.46.42,4.75,4.75,0,0,0-1.76,1.34,32.84,32.84,0,0,0-3,5.41q-2.17,4.45-4.35,9.22l-4.1,9L499.53,85a67.13,67.13,0,0,1-3.11,6.27,11.88,11.88,0,0,1-4.56,4.83,11.67,11.67,0,0,1-5.71,1.49A9.65,9.65,0,0,1,481.17,96.19Z"></path><g class="cls-4"><rect class="cls-5" x="30.04" y="2.54" width="37.91" height="54.51"></rect></g><g class="cls-6"><rect class="cls-7" x="8.41" y="53.74" width="56.32" height="39.14"></rect></g><g class="cls-8"><rect class="cls-9" x="34.42" y="57.05" width="33.18" height="47.53"></rect></g><g class="cls-10"><rect class="cls-11" y="15.95" width="64.73" height="44.84"></rect></g><g class="cls-12"><rect class="cls-13" x="73.15" y="2.54" width="37.91" height="54.51"></rect></g><g class="cls-14"><rect class="cls-15" x="76.37" y="53.74" width="56.32" height="39.14"></rect></g><g class="cls-16"><rect class="cls-17" x="73.5" y="57.05" width="33.18" height="47.53"></rect></g><g class="cls-18"><rect class="cls-19" x="76.37" y="15.95" width="64.73" height="44.84"></rect></g><text class="cls-20" transform="translate(163.4 92.03)">S<tspan class="cls-21" x="13.3" y="0">A</tspan><tspan class="cls-22" x="27.43" y="0">ÚDE E BELEZ</tspan><tspan class="cls-23" x="166.8" y="0">A</tspan><tspan class="cls-24" x="180.9" y="0" xml:space="preserve"> REN</tspan><tspan class="cls-25" x="231.77" y="0">O</tspan><tspan class="cls-26" x="246.95" y="0">V</tspan><tspan class="cls-24" x="260.25" y="0">A</tspan><tspan class="cls-27" x="274.71" y="0">D</tspan><tspan x="288.98" y="0">A</tspan><tspan class="cls-24" x="303.23" y="0">S</tspan></text></g></g></svg>