<svg xmlns="http://www.w3.org/2000/svg" xmlns:xlink="http://www.w3.org/1999/xlink" viewBox="0 0 328.96 65.43"><defs><style>.logo-1{fill:none;clip-rule:evenodd;}.logo-2{clip-path:url(#clip-path);}.logo-3{fill:url(#linear-gradient);}.logo-4{clip-path:url(#clip-path-2);}.logo-5{fill:url(#linear-gradient-2);}.logo-6{clip-path:url(#clip-path-3);}.logo-7{fill:url(#linear-gradient-3);}.logo-8{clip-path:url(#clip-path-4);}.logo-9{fill:url(#linear-gradient-4);}.logo-10{clip-path:url(#clip-path-5);}.logo-11{fill:url(#linear-gradient-5);}.logo-12{clip-path:url(#clip-path-6);}.logo-13{fill:url(#linear-gradient-6);}.logo-14{clip-path:url(#clip-path-7);}.logo-15{fill:url(#linear-gradient-7);}.logo-16{clip-path:url(#clip-path-8);}.logo-17{fill:url(#linear-gradient-8);}.logo-18{font-size:7.72px;fill:#fff;letter-spacing:0.42em;}.logo-18,.logo-29{font-family:Nexa-Thin, Nexa;font-weight:200;}.logo-19{letter-spacing:0.41em;}.logo-20{letter-spacing:0.44em;}.logo-21{letter-spacing:0.41em;}.logo-22{letter-spacing:0.44em;}.logo-23{letter-spacing:0.41em;}.logo-24{letter-spacing:0.39em;}.logo-25{letter-spacing:0.41em;}.logo-26{letter-spacing:0.42em;}.logo-27{font-size:53.45px;font-family:PalatinoLinotype-Roman, Palatino Linotype;}.logo-28{fill:url(#Gradiente_sem_nome_2);}.logo-29{font-size:7.61px;letter-spacing:0.42em;}.logo-30{letter-spacing:0.41em;}.logo-31{letter-spacing:0.44em;}.logo-32{letter-spacing:0.41em;}.logo-33{letter-spacing:0.41em;}.logo-34{letter-spacing:0.39em;}.logo-35{letter-spacing:0.41em;}.logo-36{letter-spacing:0.44em;}</style><clipPath id="clip-path"><path class="logo-1" d="M21.63,13.14a22.36,22.36,0,0,0,2.9,9.1A22.14,22.14,0,0,0,31,29.31a22.34,22.34,0,0,0,7.73,3.5,22.45,22.45,0,0,0,.84-8.44,22.23,22.23,0,0,0-2.91-9.1h0A22.32,22.32,0,0,0,22.46,4.7a22.25,22.25,0,0,0-.83,8.44m.69,10.39A24.89,24.89,0,0,1,20.39,2.78l.37-1,1.08.2a25.09,25.09,0,0,1,9.83,4.16A24.82,24.82,0,0,1,38.83,14h0a24.94,24.94,0,0,1,1.92,20.75l-.36,1-1.08-.2a25.09,25.09,0,0,1-9.83-4.16A24.81,24.81,0,0,1,22.32,23.53Z"></path></clipPath><linearGradient id="linear-gradient" x1="17.55" y1="3.28" x2="42.67" y2="33.11" gradientUnits="userSpaceOnUse"><stop offset="0" stop-color="#f9f093"></stop><stop offset="0.13" stop-color="#fbec7a"></stop><stop offset="0.24" stop-color="#f7db64"></stop><stop offset="0.33" stop-color="#c6a344"></stop><stop offset="0.49" stop-color="#986c22"></stop><stop offset="0.62" stop-color="#c9a94d"></stop><stop offset="0.69" stop-color="#fbe878"></stop><stop offset="0.73" stop-color="#faf090"></stop><stop offset="0.77" stop-color="#f9f2ab"></stop><stop offset="0.8" stop-color="#faf090"></stop><stop offset="0.83" stop-color="#fbe878"></stop><stop offset="0.92" stop-color="#d0a54a"></stop><stop offset="1" stop-color="#a3641b"></stop></linearGradient><clipPath id="clip-path-2"><path class="logo-1" d="M9.76,44.81A25.8,25.8,0,0,1,28.4,34a25.91,25.91,0,0,1,11,1.36l1,.36-.2,1.08A26.1,26.1,0,0,1,35.89,47a25.75,25.75,0,0,1-29.6,9.41l-1-.36L5.45,55A25.81,25.81,0,0,1,9.76,44.81m9.42-5.2a23.07,23.07,0,0,0-11,14.75,23.55,23.55,0,0,0,8.81.88A23.24,23.24,0,0,0,37.45,37.47a23.14,23.14,0,0,0-18.27,2.14Z"></path></clipPath><linearGradient id="linear-gradient-2" x1="3.13" y1="35.04" x2="41.18" y2="56.05" xlink:href="#linear-gradient"></linearGradient><clipPath id="clip-path-3"><path class="logo-1" d="M21.77,55.21A21.63,21.63,0,0,1,39.32,36l1.08-.21.36,1a21.53,21.53,0,0,1-1.67,18h0a21.5,21.5,0,0,1-6.21,6.83,21.83,21.83,0,0,1-8.53,3.61l-1.08.2-.36-1a21.62,21.62,0,0,1-1.14-9.18m5-7.52A19,19,0,0,0,25,62.47a19,19,0,0,0,11.9-9h0a19,19,0,0,0,1.81-14.79,19,19,0,0,0-11.9,9Z"></path></clipPath><linearGradient id="linear-gradient-3" x1="20.43" y1="37.1" x2="42.42" y2="63.12" xlink:href="#linear-gradient"></linearGradient><clipPath id="clip-path-4"><path class="logo-1" d="M7.26,23.79A27.25,27.25,0,0,0,26.94,35.15a27.39,27.39,0,0,0,10.51-1.08,27.37,27.37,0,0,0-4.31-9.66A27.24,27.24,0,0,0,2.94,14.14a27.26,27.26,0,0,0,4.32,9.65m7.33,10a29.65,29.65,0,0,1-9.41-8.57,29.79,29.79,0,0,1-5-11.74L0,12.44l1-.36A29.81,29.81,0,0,1,35.22,22.94a29.91,29.91,0,0,1,5,11.75l.2,1.07-1,.37A29.79,29.79,0,0,1,26.71,37.7,29.7,29.7,0,0,1,14.59,33.83Z"></path></clipPath><linearGradient id="linear-gradient-4" x1="-2.44" y1="11.65" x2="41.31" y2="35.71" xlink:href="#linear-gradient"></linearGradient><clipPath id="clip-path-5"><path class="logo-1" d="M66.43,13.14a22.36,22.36,0,0,1-2.9,9.1,22.14,22.14,0,0,1-6.43,7.07,22.3,22.3,0,0,1-7.74,3.5,22.66,22.66,0,0,1-.83-8.44,22.23,22.23,0,0,1,2.91-9.1h0A22.17,22.17,0,0,1,57.86,8.2,22.47,22.47,0,0,1,65.6,4.7a22.25,22.25,0,0,1,.83,8.44m-.69,10.39A24.89,24.89,0,0,0,67.67,2.78l-.37-1L66.22,2a25.09,25.09,0,0,0-9.83,4.16A24.82,24.82,0,0,0,49.23,14h0A24.94,24.94,0,0,0,47.3,34.73l.36,1,1.08-.2a25.09,25.09,0,0,0,9.83-4.16A24.81,24.81,0,0,0,65.74,23.53Z"></path></clipPath><linearGradient id="linear-gradient-5" x1="70.51" y1="3.29" x2="45.39" y2="33.11" xlink:href="#linear-gradient"></linearGradient><clipPath id="clip-path-6"><path class="logo-1" d="M78.3,44.81A25.8,25.8,0,0,0,59.66,34a25.91,25.91,0,0,0-11,1.36l-1,.36.2,1.08A26.1,26.1,0,0,0,52.17,47a25.75,25.75,0,0,0,29.6,9.41l1-.36L82.61,55A25.81,25.81,0,0,0,78.3,44.81m-9.42-5.2a23.07,23.07,0,0,1,11,14.75,23.57,23.57,0,0,1-8.81.88A23.24,23.24,0,0,1,50.61,37.47a23.14,23.14,0,0,1,18.27,2.14Z"></path></clipPath><linearGradient id="linear-gradient-6" x1="84.93" y1="35.04" x2="46.87" y2="56.05" xlink:href="#linear-gradient"></linearGradient><clipPath id="clip-path-7"><path class="logo-1" d="M66.29,55.21A21.63,21.63,0,0,0,48.74,36l-1.08-.21-.36,1a21.53,21.53,0,0,0,1.67,18h0a21.5,21.5,0,0,0,6.21,6.83,21.83,21.83,0,0,0,8.53,3.61l1.08.2.36-1a21.62,21.62,0,0,0,1.14-9.18m-5-7.52a18.88,18.88,0,0,1,2.47,7.75,19.13,19.13,0,0,1-.66,7,19,19,0,0,1-11.9-9h0a18.93,18.93,0,0,1-1.81-14.79,19,19,0,0,1,11.9,9Z"></path></clipPath><linearGradient id="linear-gradient-7" x1="67.63" y1="37.1" x2="45.64" y2="63.12" xlink:href="#linear-gradient"></linearGradient><clipPath id="clip-path-8"><path class="logo-1" d="M80.8,23.79A27.25,27.25,0,0,1,61.12,35.15a27.39,27.39,0,0,1-10.51-1.08A27.06,27.06,0,0,1,63.52,16.59a27.2,27.2,0,0,1,21.59-2.45,27.24,27.24,0,0,1-4.31,9.65m-7.33,10a29.65,29.65,0,0,0,9.41-8.57,29.93,29.93,0,0,0,5-11.74l.2-1.08-1-.36A29.78,29.78,0,0,0,47.86,34.69l-.2,1.07,1,.37A29.79,29.79,0,0,0,61.35,37.7,29.7,29.7,0,0,0,73.47,33.83Z"></path></clipPath><linearGradient id="linear-gradient-8" x1="90.49" y1="11.65" x2="46.76" y2="35.71" xlink:href="#linear-gradient"></linearGradient><linearGradient id="Gradiente_sem_nome_2" x1="99.91" y1="34.91" x2="327.89" y2="34.91" gradientUnits="userSpaceOnUse"><stop offset="0.33" stop-color="#c8a443"></stop><stop offset="0.49" stop-color="#996c22"></stop><stop offset="0.62" stop-color="#caaa4d"></stop><stop offset="0.69" stop-color="#fbe878"></stop><stop offset="0.92" stop-color="#d0a549"></stop><stop offset="1" stop-color="#a4631b"></stop></linearGradient></defs><g id="Camada_2" data-name="Camada 2"><g id="Camada_1-2" data-name="Camada 1"><g class="logo-2"><rect class="logo-3" x="18.75" y="1.75" width="23.66" height="34.02"></rect></g><g class="logo-4"><rect class="logo-5" x="5.25" y="33.7" width="35.15" height="24.43"></rect></g><g class="logo-6"><rect class="logo-7" x="21.48" y="35.76" width="20.71" height="29.67"></rect></g><g class="logo-8"><rect class="logo-9" y="10.11" width="40.4" height="27.98"></rect></g><g class="logo-10"><rect class="logo-11" x="45.65" y="1.75" width="23.66" height="34.02"></rect></g><g class="logo-12"><rect class="logo-13" x="47.66" y="33.7" width="35.15" height="24.43"></rect></g><g class="logo-14"><rect class="logo-15" x="45.87" y="35.76" width="20.71" height="29.67"></rect></g><g class="logo-16"><rect class="logo-17" x="47.66" y="10.11" width="40.4" height="27.98"></rect></g><text class="logo-18" transform="translate(101.98 57.59)">S<tspan class="logo-19" x="8.3" y="0">A</tspan><tspan class="logo-20" x="17.12" y="0">ÚDE E BELEZ</tspan><tspan class="logo-21" x="104.1" y="0">A</tspan><tspan class="logo-22" x="112.9" y="0" xml:space="preserve"> REN</tspan><tspan class="logo-23" x="144.65" y="0">O</tspan><tspan class="logo-24" x="154.12" y="0">V</tspan><tspan class="logo-20" x="162.42" y="0">A</tspan><tspan class="logo-25" x="171.45" y="0">D</tspan><tspan class="logo-26" x="180.35" y="0">A</tspan><tspan class="logo-20" x="189.25" y="0">S</tspan></text><text class="logo-27" transform="translate(98.94 45.86)">LitBeauty</text><path class="logo-28" d="M99.91,9.16l.21-.18q6.47.21,7.46.21T115.07,9l.21.18v1.31l-.21.18c-1.2,0-2.13.09-2.78.16a3.43,3.43,0,0,0-1.42.39,1.85,1.85,0,0,0-.59,1.34,24.42,24.42,0,0,0-.14,2.94l0,6V33c0,2.89,0,4.9,0,6l.13,4.52h5.33q6.36,0,7.94-.16a10.52,10.52,0,0,0,3-.76,21.33,21.33,0,0,0,.83-3c.35-1.56.54-2.47.56-2.71l.23-.21h1.28l.18.21a40.3,40.3,0,0,0-.43,4c-.15,2-.22,3.62-.22,4.86l-.21.21c-3.3-.11-7.65-.16-13-.16l-7.62,0c-1.74,0-3.52.07-5.33.21l-.21-.21V45l.21-.26a11.89,11.89,0,0,0,1.78-1,17.22,17.22,0,0,0,.32-3.37c.12-2.12.17-4.68.17-7.67V21.48l0-5.09c0-2-.07-3.26-.14-3.84a2.3,2.3,0,0,0-.37-1.14,1.78,1.78,0,0,0-1-.47,21.29,21.29,0,0,0-3.47-.29l-.21-.18Z"></path><path class="logo-28" d="M141.33,21l.5.34c-.2,2.28-.29,5.18-.29,8.7v5.89c0,.39,0,1.62.1,3.7s.15,3.29.22,3.64a1.54,1.54,0,0,0,.36.76,1.12,1.12,0,0,0,.57.3c.23,0,1.17.11,2.82.22l.24.21v1.09l-.21.24q-3.27-.21-6.29-.21t-6.27.21l-.23-.24V44.74l.23-.21c1.69-.11,2.64-.19,2.86-.24a1.16,1.16,0,0,0,.57-.32,1.38,1.38,0,0,0,.34-.76c.06-.34.13-1.46.21-3.37s.12-3.34.12-4.32V30.38c0-.69,0-1.64-.1-2.84s-.13-1.94-.17-2.22a.83.83,0,0,0-.41-.62,3.15,3.15,0,0,0-1.36-.19l-2.19,0-.23-.21V23.15l.21-.21A33.77,33.77,0,0,0,141.33,21ZM139.11,9.32a2.94,2.94,0,0,1,2.95,2.95,2.83,2.83,0,0,1-.86,2.06,3,3,0,0,1-4.16,0,2.74,2.74,0,0,1-.88-2.07,3,3,0,0,1,3-2.95Z"></path><path class="logo-28" d="M148.35,25.37v-.68l.18-.26a35.27,35.27,0,0,0,4-1.7q0-6.81-.16-7.93a22.49,22.49,0,0,0,4.41-2l.63.52q-.25,1.65-.63,9.55,1.31,0,2.82,0a40.84,40.84,0,0,0,4.41-.16l.19.19-.5,2.19-.21.23-3,0-3.76,0L156.6,36a40.07,40.07,0,0,0,.17,4.81,2.71,2.71,0,0,0,.94,1.78,3.52,3.52,0,0,0,2.28.64,6.07,6.07,0,0,0,3.24-.92l.62.94q-.61.45-3,2.61a6.46,6.46,0,0,1-2.76.63q-5.88,0-5.88-5.69c0-1.39,0-2.58.11-3.55,0-.3,0-.6,0-.91V25.47h-1.07c-.78,0-1.68,0-2.68.11Z"></path><path class="logo-28" d="M165.52,10.65l-.21-.18V9.16l.21-.18q4.47.21,6.89.21.92,0,7.23-.21c1.36,0,2.34-.05,3-.05a17.88,17.88,0,0,1,5.59.7,6.52,6.52,0,0,1,3.31,2.49,6.9,6.9,0,0,1,1.26,4.06,8.2,8.2,0,0,1-2.09,5.38c-1.39,1.65-3.66,2.84-6.79,3.55a27.76,27.76,0,0,1,4.65.76,9,9,0,0,1,3.16,1.52,7.3,7.3,0,0,1,2.1,2.68,8.9,8.9,0,0,1,.77,3.81,12.22,12.22,0,0,1-.52,3.44,10.12,10.12,0,0,1-1.92,3.47,13.18,13.18,0,0,1-3.38,3,15.23,15.23,0,0,1-4.06,1.78,20.78,20.78,0,0,1-5.16.55c-.41,0-1.67,0-3.75-.13-2.32-.06-3.57-.08-3.76-.08-1.19,0-2.64.07-4.36.21l-.21-.21V45l.21-.26a8,8,0,0,0,1.75-.94,21,21,0,0,0,.37-4.62q.15-4.36.15-6.66V22.94l0-5.92c0-1.29,0-2.34,0-3.15a14.22,14.22,0,0,0-.14-1.73,1.35,1.35,0,0,0-.3-.73,1.75,1.75,0,0,0-.59-.36,6.46,6.46,0,0,0-1.29-.24Zm9.37,13.7c.87.07,1.86.11,3,.11q5.4,0,7.52-1.94a6.79,6.79,0,0,0,2.11-5.29,6.52,6.52,0,0,0-.8-3.33,5.09,5.09,0,0,0-2.55-2.1,12.37,12.37,0,0,0-4.71-.73,20.89,20.89,0,0,0-4.28.39c-.16,1.56-.24,4.3-.24,8.19Zm.06,19a18.2,18.2,0,0,0,4.12.47,11.92,11.92,0,0,0,5.85-1.2A7.38,7.38,0,0,0,188,39.32a10.7,10.7,0,0,0,1-4.63,8.42,8.42,0,0,0-2.13-6c-1.42-1.5-4.48-2.26-9.2-2.26-.78,0-1.72,0-2.82.11v8.9Z"></path><path class="logo-28" d="M220.31,42l-.84,1.88a16.47,16.47,0,0,1-4.84,2.27,16,16,0,0,1-3.8.52,14.78,14.78,0,0,1-5.93-1.22,10,10,0,0,1-4.57-4.15,13.37,13.37,0,0,1-1.76-7,16.55,16.55,0,0,1,.68-5,12,12,0,0,1,1.42-3.27,10.66,10.66,0,0,1,2.52-2.38,16.89,16.89,0,0,1,3.75-2.09,11.64,11.64,0,0,1,4.29-.78,10.27,10.27,0,0,1,5.52,1.48,8.08,8.08,0,0,1,3.35,3.77,12.54,12.54,0,0,1,1,4.88c0,.54,0,1.06-.08,1.56l-.29.29a28.4,28.4,0,0,1-4.78.52c-2,.09-3.32.13-4,.13h-8.38c0,3.61.94,6.26,2.71,8A9.09,9.09,0,0,0,212.82,44a10.13,10.13,0,0,0,3.51-.62,22,22,0,0,0,3.56-1.75ZM203.58,31.35c.31,0,1.52.11,3.61.18s3.65.1,4.66.1a39.87,39.87,0,0,0,4.41-.13c0-.41,0-.74,0-1,0-2.7-.55-4.7-1.65-6a5.53,5.53,0,0,0-4.48-2,5.81,5.81,0,0,0-4.85,2.22Q203.58,27,203.58,31.35Z"></path><path class="logo-28" d="M228.37,28.16l-1-.26-.21-.26V24.4q4.64-3.43,9-3.44a10,10,0,0,1,5,1.12A7,7,0,0,1,244,24.89a8.19,8.19,0,0,1,.89,3.92l-.13,5.25v7.78a4.73,4.73,0,0,0,.22,1.93,1.16,1.16,0,0,0,.51.46,4.31,4.31,0,0,0,1.07.19l1.49.13.21.24v1l-.21.21c-1.27-.1-2.45-.16-3.55-.16s-2.3.06-3.76.16l-.39-.36.1-4.21-5.69,4.44a8,8,0,0,1-3.13.6,7.83,7.83,0,0,1-3.59-.76,5.39,5.39,0,0,1-2.29-2.11,6.39,6.39,0,0,1-.8-3.29,7.64,7.64,0,0,1,2.4-6q2.4-2.14,13.1-3.67,0-3.86-1.72-5.44a6.59,6.59,0,0,0-4.62-1.58,8,8,0,0,0-2.75.45,3.48,3.48,0,0,0-1.42.71c-.13.19-.6,1.25-1.41,3.2Zm12.11,4.13q-7.3,1.22-9.1,2.63a5.17,5.17,0,0,0-1.81,4.36c0,2.72,1.35,4.07,4.05,4.07q3.47,0,6.86-4Z"></path><path class="logo-28" d="M258.6,21l.49.34q-.29,3.42-.28,8.7V36.1a14.4,14.4,0,0,0,.51,4.64,3.78,3.78,0,0,0,1.76,2,6,6,0,0,0,3,.69,8.05,8.05,0,0,0,3.47-.74,7.29,7.29,0,0,0,2.63-2.1,8.73,8.73,0,0,0,1.21-1.83,12.37,12.37,0,0,0,.21-2.64l.08-2.92V30.38c0-.69,0-1.64-.11-2.84s-.12-1.94-.17-2.22a.8.8,0,0,0-.4-.62,3.15,3.15,0,0,0-1.36-.19l-2.19,0-.23-.21V23.15l.2-.21a33.75,33.75,0,0,0,8.41-2l.49.34Q276,24.74,276,30v4.59q0,.39.13,6.39a9.46,9.46,0,0,0,.27,2.7,1.3,1.3,0,0,0,.62.68,7.46,7.46,0,0,0,2.32.2h.73l.23.21v1l-.21.24c-2.45-.14-4.09-.21-4.93-.21-1.06,0-2.29.06-3.68.18l-.23-.21c.1-1.77.18-3.28.23-4.51a40,40,0,0,0-3.76,3.42,6.15,6.15,0,0,1-2.32,1.35,10,10,0,0,1-3.44.55,9.29,9.29,0,0,1-4.56-.93,5.14,5.14,0,0,1-2.31-2.55,16.34,16.34,0,0,1-.68-5.63l0-2.06V30.38c0-.69,0-1.64-.11-2.84s-.12-1.94-.17-2.22a.8.8,0,0,0-.4-.62,3.15,3.15,0,0,0-1.36-.19l-2.19,0-.23-.21V23.15l.2-.21A33.75,33.75,0,0,0,258.6,21Z"></path><path class="logo-28" d="M283,25.37v-.68l.18-.26a35.27,35.27,0,0,0,4-1.7q0-6.81-.15-7.93a23,23,0,0,0,4.41-2l.62.52q-.25,1.65-.62,9.55c.87,0,1.81,0,2.81,0a41.19,41.19,0,0,0,4.42-.16l.18.19-.5,2.19-.21.23-2.95,0-3.75,0L291.25,36a42.42,42.42,0,0,0,.17,4.81,2.75,2.75,0,0,0,.94,1.78,3.52,3.52,0,0,0,2.28.64,6.07,6.07,0,0,0,3.24-.92l.63.94c-.42.3-1.42,1.17-3,2.61a6.46,6.46,0,0,1-2.76.63q-5.88,0-5.88-5.69c0-1.39,0-2.58.11-3.55,0-.3,0-.6,0-.91V25.47h-1.07c-.79,0-1.68,0-2.69.11Z"></path><path class="logo-28" d="M300.41,60a28.48,28.48,0,0,0,1.33-4h.63a3.74,3.74,0,0,0,2.77,1.38,4,4,0,0,0,3.22-1.84,42.71,42.71,0,0,0,3.87-8.13c-.66-1.86-1.33-3.61-2-5.27l-4.15-10.28q-.65-1.59-1.93-4.56a29.71,29.71,0,0,0-1.52-3.26,3,3,0,0,0-.64-.56,6.78,6.78,0,0,0-2.12-.5l-.21-.2V21.74l.24-.21c2,.12,4.05.19,6.16.19,2.47,0,4.38-.07,5.71-.19l.21.21v1.05l-.18.2-1.6.12a2.9,2.9,0,0,0-1.65.42,1,1,0,0,0-.32.74,15.84,15.84,0,0,0,.8,2.89c.54,1.62,1.07,3.06,1.57,4.32l1.64,4.07q1.62,4,2.51,5.92l1.38-3q.74-1.66,2.09-5.06l2.17-5.54c.55-1.42.87-2.31.95-2.66a3.85,3.85,0,0,0,.12-.76.79.79,0,0,0-.42-.78,6.64,6.64,0,0,0-1.85-.36l-1.1-.16-.18-.21V21.74l.21-.21c1.46.12,3.19.19,5.19.19a41.88,41.88,0,0,0,4.39-.19l.2.21v1.15l-.2.21a4.42,4.42,0,0,0-1.54.26,3,3,0,0,0-1.1.83,21.64,21.64,0,0,0-1.88,3.38c-.9,1.86-1.81,3.78-2.71,5.76l-2.56,5.61-6,14.1c-.52,1.21-1.17,2.52-1.94,3.91a7.53,7.53,0,0,1-2.85,3,7.35,7.35,0,0,1-3.56.92A6.08,6.08,0,0,1,300.41,60Z"></path><text class="logo-29" transform="translate(101.87 59.48)">S<tspan class="logo-30" x="8.19" y="0">A</tspan><tspan class="logo-31" x="16.88" y="0">ÚDE E BELEZ</tspan><tspan class="logo-32" x="102.64" y="0">A</tspan><tspan class="logo-31" x="111.31" y="0" xml:space="preserve"> REN</tspan><tspan class="logo-33" x="142.61" y="0">O</tspan><tspan class="logo-34" x="151.95" y="0">V</tspan><tspan class="logo-31" x="160.14" y="0">A</tspan><tspan class="logo-35" x="169.04" y="0">D</tspan><tspan x="177.81" y="0">A</tspan><tspan class="logo-36" x="186.59" y="0">S</tspan></text></g></g></svg>