<svg xmlns="http://www.w3.org/2000/svg" viewBox="0 0 93.75 40.32">
    <path fill="#ccbe79" d="M30.64,28.4,33.48,25a8.92,8.92,0,0,0,5.44,2.29c2.06,0,3.07-.81,3.07-2.12s-1.25-1.83-3.17-2.64L36,21.31a6.42,6.42,0,0,1-4.43-6c0-3.65,3.24-6.55,7.84-6.55a10.19,10.19,0,0,1,7.09,2.9l-2.54,3.14A7.15,7.15,0,0,0,39.36,13c-1.73,0-2.81.75-2.81,2s1.46,1.82,3.35,2.6l2.83,1.14c2.67,1.09,4.36,2.87,4.36,6,0,3.65-3,6.82-8.31,6.82A12.08,12.08,0,0,1,30.64,28.4Z"></path>
    <path fill="#ccbe79" d="M54.92,9.15h6l6.88,22H62.52l-1.35-5.24H54.45L53.1,31.17H48Zm.54,12.9h4.69l-.5-2c-.61-2.19-1.22-4.79-1.79-7.09h-.14c-.54,2.33-1.11,4.9-1.72,7.09Z"></path>
    <path fill="#ccbe79" d="M68.79,20.29c0-7.29,4.83-11.54,10.4-11.54a9.29,9.29,0,0,1,6.62,2.87l-2.63,3.17A5.66,5.66,0,0,0,79.3,13c-3,0-5.41,2.67-5.41,7.09s2.1,7.16,5.34,7.16a5.87,5.87,0,0,0,4.29-2.06l2.63,3.11A9.06,9.06,0,0,1,79,31.57C73.45,31.57,68.79,27.69,68.79,20.29Z"></path>
    <path fill="#ccbe79" d="M18,0h-7A11,11,0,0,0,0,10.94v.48A11,11,0,0,0,7.48,21.79L7.85,28A1.23,1.23,0,0,0,8.63,29a1.13,1.13,0,0,0,.45.09,1.23,1.23,0,0,0,.84-.34l2.1-2L14,25l2.77-2.61H18A10.94,10.94,0,0,0,28.91,11.42v-.48A11,11,0,0,0,18,0Zm8.48,11.42a8.22,8.22,0,0,1-.3,2.23A8.49,8.49,0,0,1,18,19.9H16.25a1.21,1.21,0,0,0-.84.34l-1.77,1.67-2.36,2.22L10.14,25.2l-.26-4.42a1.25,1.25,0,0,0-.94-1.12,8.46,8.46,0,0,1-6.48-8.24v-.48a8.48,8.48,0,0,1,8.48-8.48h7a8.48,8.48,0,0,1,8.48,8.48Z"></path>
    <path fill="#ccbe79" d="M31.41,30.76a2.14,2.14,0,0,1-.27.09A1.23,1.23,0,0,0,30.21,32l-.27,4.42-5.27-5a1.2,1.2,0,0,0-.84-.34H22.12A8.48,8.48,0,0,1,14,25a8.36,8.36,0,0,1-.34-2.36v-.48a1.7,1.7,0,0,1,0-.22l-2.36,2.22A10.42,10.42,0,0,0,12,26.81a10.94,10.94,0,0,0,10.1,6.74h1.22L30.16,40a1.26,1.26,0,0,0,.85.34,1.2,1.2,0,0,0,.45-.09,1.24,1.24,0,0,0,.77-1.07L32.61,33a10.31,10.31,0,0,0,1.73-.78A13.08,13.08,0,0,1,31.41,30.76Z"></path>
    <path fill="#ccbe79" d="M30.29,13.76a7.42,7.42,0,0,1,1-2.36,11.48,11.48,0,0,0-2.13-.21H26.45v.23a8.22,8.22,0,0,1-.3,2.23h3A8.78,8.78,0,0,1,30.29,13.76Z"></path>
    <path fill="#ccbe79" d="M15.4,7.79a1.16,1.16,0,0,0-1.29-1.22,2.44,2.44,0,0,0-1.76.89L10.78,6a4.89,4.89,0,0,1,3.69-1.76c2.07,0,3.66,1,3.66,3.31s-2.9,3.11-2.67,5.41H13C12.58,10.34,15.4,9.24,15.4,7.79ZM12.5,15.9a1.71,1.71,0,1,1,1.7,1.78A1.7,1.7,0,0,1,12.5,15.9Z"></path>
    <path fill="#ccbe79" d="M90.5,22.29a1.56,1.56,0,0,1,.41-1.18,1.74,1.74,0,0,1,1.22-.4,1.66,1.66,0,0,1,1.2.41,1.84,1.84,0,0,1,0,2.35,1.69,1.69,0,0,1-1.19.41,1.7,1.7,0,0,1-1.21-.41A1.57,1.57,0,0,1,90.5,22.29Zm0,7.7a1.54,1.54,0,0,1,.41-1.18,1.7,1.7,0,0,1,1.22-.41,1.66,1.66,0,0,1,1.2.41A1.59,1.59,0,0,1,93.75,30a1.57,1.57,0,0,1-.42,1.16,1.66,1.66,0,0,1-1.2.42,1.7,1.7,0,0,1-1.21-.41A1.58,1.58,0,0,1,90.5,30Z"></path>
</svg>